<?xml version="1.0" encoding="UTF-8"?>
<svg xmlns="http://www.w3.org/2000/svg" viewBox="0 0 270.92 292.38">
  <defs>
    <style>
      .cls-1 {
        fill: #e53e53;
        stroke: #e53e53;
      }

      .cls-1, .cls-2 {
        stroke-width: .25px;
      }

      .cls-1, .cls-2, .cls-3 {
        stroke-miterlimit: 10;
      }

      .cls-2 {
        fill: #c7e5ef;
        stroke: #a9dfed;
      }

      .cls-3 {
        fill: #f4e16e;
        stroke: #f4d84e;
        stroke-width: .5px;
      }
    </style>
  </defs>
  <g id="Layer_3" data-name="Layer 3">
    <ellipse class="cls-3" cx="219.28" cy="49.52" rx="51.39" ry="49.27"/>
    <path class="cls-2" d="M2.48,52.96c9.54-7.42,212.21-7.42,217.63,0,5.42,7.42-101.45,59.35-102.66,118.15-1.22,59.12-1.62,85.68-.53,97.49,1.24,13.36,51.39,16.42,48.74,20.66-2.65,4.24-106.12,3.71-108.96,0-2.83-3.71,48.03-6.89,48.56-19.6,.53-12.72,2.65-36.56,0-98.55S-7.06,60.38,2.48,52.96Z"/>
  </g>
  <g id="Layer_4" data-name="Layer 4">
    <path class="cls-1" d="M108.93,155.31s15.16-29.07,24.85-38.76c15.32-15.32,35.53-34.59,47.96-38.76,10.67-3.58-154.09,0-144.46,0,10.77,0,28.67,19.38,48.05,38.76,16.42,16.42,25.46,34.35,29.07,38.76"/>
  </g>
</svg>