<svg xmlns="http://www.w3.org/2000/svg" width="256" height="256" viewBox="0 0 100 100"><rect width="100" height="100" rx="50" fill="#2da79f"></rect><path d="M23.05 66.92L23.05 66.92L8.19 66.92Q7.30 66.92 6.90 66.52Q6.50 66.12 6.50 65.23L6.50 65.23L6.50 59.73Q6.50 58.84 6.90 58.44Q7.30 58.04 8.19 58.04L8.19 58.04L20.84 58.04Q21.45 58.04 21.75 57.64Q22.06 57.24 22.06 56.67L22.06 56.67Q22.06 55.88 21.75 55.50Q21.45 55.12 20.84 55.08L20.84 55.08L13.79 54.09Q10.50 53.62 8.50 51.93Q6.50 50.23 6.50 46.29L6.50 46.29L6.50 41.35Q6.50 37.36 9.09 35.22Q11.67 33.08 16.23 33.08L16.23 33.08L29.39 33.08Q30.28 33.08 30.68 33.48Q31.08 33.88 31.08 34.77L31.08 34.77L31.08 40.37Q31.08 41.26 30.68 41.66Q30.28 42.06 29.39 42.06L29.39 42.06L18.44 42.06Q17.83 42.06 17.50 42.46Q17.17 42.86 17.17 43.47L17.17 43.47Q17.17 44.08 17.50 44.50Q17.83 44.92 18.44 44.97L18.44 44.97L25.44 45.91Q28.73 46.38 30.75 48.07Q32.77 49.77 32.77 53.71L32.77 53.71L32.77 58.65Q32.77 62.64 30.17 64.78Q27.56 66.92 23.05 66.92ZM26.85 37.78L26.85 37.31L16.42 37.31Q14.26 37.31 12.94 38.51Q11.62 39.71 11.62 41.59L11.62 41.59L11.62 45.44Q11.62 47.37 12.40 48.10Q13.18 48.83 14.40 49.06L14.40 49.06L24.31 51.08Q25.63 51.36 26.41 52.19Q27.18 53.01 27.18 55.22L27.18 55.22L27.18 57.94Q27.18 59.82 25.89 61.02Q24.60 62.22 22.43 62.22L22.43 62.22L10.73 62.22L10.73 62.69L22.43 62.69Q24.83 62.69 26.24 61.35Q27.65 60.01 27.65 57.94L27.65 57.94L27.65 55.22Q27.65 52.77 26.73 51.83Q25.82 50.89 24.41 50.61L24.41 50.61L14.49 48.59Q13.41 48.40 12.75 47.74Q12.09 47.09 12.09 45.44L12.09 45.44L12.09 41.59Q12.09 39.94 13.27 38.86Q14.44 37.78 16.42 37.78L16.42 37.78L26.85 37.78ZM58.86 66.92L38.84 66.92Q37.94 66.92 37.55 66.52Q37.15 66.12 37.15 65.23L37.15 65.23L37.15 59.64Q37.15 58.74 37.55 58.34Q37.94 57.94 38.84 57.94L38.84 57.94L43.49 57.94L43.49 42.15L38.84 42.15Q37.94 42.15 37.55 41.75Q37.15 41.35 37.15 40.46L37.15 40.46L37.15 34.77Q37.15 33.88 37.55 33.48Q37.94 33.08 38.84 33.08L38.84 33.08L58.86 33.08Q59.75 33.08 60.15 33.48Q60.55 33.88 60.55 34.77L60.55 34.77L60.55 40.46Q60.55 41.35 60.15 41.75Q59.75 42.15 58.86 42.15L58.86 42.15L54.30 42.15L54.30 57.94L58.86 57.94Q59.75 57.94 60.15 58.34Q60.55 58.74 60.55 59.64L60.55 59.64L60.55 65.23Q60.55 66.12 60.15 66.52Q59.75 66.92 58.86 66.92L58.86 66.92ZM41.38 62.69L56.32 62.69L56.32 62.22L49.13 62.22L49.13 37.78L56.32 37.78L56.32 37.31L41.38 37.31L41.38 37.78L48.66 37.78L48.66 62.22L41.38 62.22L41.38 62.69ZM75.31 66.92L75.31 66.92L68.02 66.92Q67.13 66.92 66.73 66.52Q66.33 66.12 66.33 65.23L66.33 65.23L66.33 34.77Q66.33 33.88 66.73 33.48Q67.13 33.08 68.02 33.08L68.02 33.08L82.41 33.08Q88.80 33.08 91.15 35.62Q93.50 38.16 93.50 42.25L93.50 42.25L93.50 48.26Q93.50 52.35 91.15 54.89Q88.80 57.43 82.41 57.43L82.41 57.43L77.00 57.43L77.00 65.23Q77.00 66.12 76.60 66.52Q76.20 66.92 75.31 66.92ZM72.07 53.43L81.75 53.43Q83.96 53.43 85.34 52.96Q86.73 52.49 87.48 51.67Q88.23 50.85 88.52 49.69Q88.80 48.54 88.80 47.18L88.80 47.18L88.80 43.70Q88.80 42.34 88.52 41.16Q88.23 39.99 87.48 39.14Q86.73 38.30 85.34 37.80Q83.96 37.31 81.75 37.31L81.75 37.31L71.60 37.31L71.60 62.69L72.07 62.69L72.07 53.43ZM81.75 52.96L72.07 52.96L72.07 37.78L81.75 37.78Q83.82 37.78 85.11 38.23Q86.40 38.67 87.11 39.47Q87.81 40.27 88.07 41.35Q88.33 42.43 88.33 43.70L88.33 43.70L88.33 47.18Q88.33 48.45 88.07 49.51Q87.81 50.56 87.11 51.34Q86.40 52.12 85.11 52.54Q83.82 52.96 81.75 52.96L81.75 52.96ZM81.14 41.87L76.91 41.87L76.91 48.97L81.14 48.97Q82.50 48.97 82.92 48.26Q83.35 47.56 83.35 46.66L83.35 46.66L83.35 44.17Q83.35 43.28 82.92 42.57Q82.50 41.87 81.14 41.87L81.14 41.87Z" fill="#fff"></path></svg>