<svg xmlns="http://www.w3.org/2000/svg" xmlns:xlink="http://www.w3.org/1999/xlink" width="475.635" height="3476.861" viewBox="0 0 475.635 3476.861">
  <defs>
    <filter id="Path_1052" x="0" y="0" width="270.219" height="3475.066" filterUnits="userSpaceOnUse">
      <feOffset dx="-15" input="SourceAlpha"/>
      <feGaussianBlur stdDeviation="5" result="blur"/>
      <feFlood flood-opacity="0.161"/>
      <feComposite operator="in" in2="blur"/>
      <feComposite in="SourceGraphic"/>
    </filter>
    <filter id="Path_1053" x="205.416" y="0" width="270.219" height="3476.86" filterUnits="userSpaceOnUse">
      <feOffset dx="15" input="SourceAlpha"/>
      <feGaussianBlur stdDeviation="5" result="blur-2"/>
      <feFlood flood-opacity="0.161"/>
      <feComposite operator="in" in2="blur-2"/>
      <feComposite in="SourceGraphic"/>
    </filter>
  </defs>
  <g id="full_pillar" transform="translate(30 15)">
    <g transform="matrix(1, 0, 0, 1, -30, -15)" filter="url(#Path_1052)">
      <path id="Path_1052-2" data-name="Path 1052" d="M1483.28,1195c52.6.227,239.992,0,239.992,0v339.231s.51,3095.415,0,3105.608c-44.805.512-69.529,0-95.478,0-10.011,0-.279-3105.608,0-3105.608-1.532-33.926-18.384-97.733-22.469-107.7C1601.24,1413.9,1567.027,1296.255,1483.28,1195Z" transform="translate(-1453.28 -1180)" fill="#bbb8b8"/>
    </g>
    <g transform="matrix(1, 0, 0, 1, -30, -15)" filter="url(#Path_1053)">
      <path id="Path_1053-2" data-name="Path 1053" d="M1723.264,1195c-52.6.227-239.992,0-239.992,0v339.231s-.51,3097.209,0,3107.4c44.805.512,69.529,0,95.478,0,10.011,0,.279-3107.4,0-3107.4,1.532-33.926,18.384-97.733,22.469-107.7C1605.3,1413.9,1639.517,1296.255,1723.264,1195Z" transform="translate(-1277.63 -1180)" fill="#bbb8b8"/>
    </g>
  </g>
</svg>
