<svg xmlns="http://www.w3.org/2000/svg" width="54.5" height="54" viewBox="0 0 54.5 54">
  <g id="icon_download" transform="translate(0.5)">
    <rect id="Square" width="54" height="54" fill="none"/>
    <path id="Icon_-_Download" data-name="Icon - Download" d="M3.745,43.429C1.722,43.323.573,42.422.292,40.4c-.465-3.368-.2-7-.292-10.406-.058-2.253,3.436-2.244,3.493,0,.078,2.986.169,5.972.233,8.957.027,1.267-.343,1.092,1.18.977,1.023-.075,2.066-.06,3.1-.046.517.008,1.033.015,1.544.011l16.267-.125,16.267-.125q2.324-.018,4.648-.037l2-.015a1,1,0,0,1,.065-.437,15.171,15.171,0,0,0-.1-3.711q-.056-2.122-.113-4.242c-.06-2.253,3.434-2.245,3.493,0q.072,2.652.142,5.3a16.049,16.049,0,0,1-.019,4.391c-.652,2.332-2.919,2.187-4.889,2.2l-21.5.167c-5.308.041-10.694.315-16.04.315C7.762,43.574,5.748,43.534,3.745,43.429ZM18.752,29.7a76.7,76.7,0,0,1-7.818-8.9c-1.414-1.909-2.066-4.509.916-5.266a25.854,25.854,0,0,1,6.317-.368c-.056-2.271-.066-4.547-.116-6.818-.04-1.815-.624-4.481.3-6.205C19.777-.537,24.886.056,27.392.056c2.573,0,7.833-.612,9.132,2.295.83,1.858.237,4.565.2,6.5-.041,2.1-.054,4.2-.1,6.3,2.2-.036,4.6-.2,6.548.412,2.812.879,2.009,3.46.683,5.234a79.116,79.116,0,0,1-8.194,9.266c-2.36,2.3-4.747,5.177-8.264,5.182C23.733,35.243,21.183,32.1,18.752,29.7ZM14.307,19.495q.637.813,1.294,1.6,2.32,2.8,4.882,5.391c1.669,1.691,4.345,5.261,6.91,5.264S32.63,28.181,34.3,26.49Q36.858,23.9,39.183,21.1q.657-.792,1.294-1.6a5.48,5.48,0,0,1,.262-.658c-.156,0-.3.005-.425,0-1.83-.07-3.662-.107-5.492-.207a1.778,1.778,0,0,1-1.747-1.747c.142-3.829.138-7.663.256-11.494.058-1.857.06-1.556-1.977-1.685-1.318-.083-2.641-.156-3.961-.156s-2.644.073-3.962.156c-.4.026-1.862-.069-2.179.325.114-.137.17.294.195.723.028.488.018.978.007.636.121,3.83.115,7.664.256,11.494a1.773,1.773,0,0,1-1.747,1.747c-1.829.1-3.661.137-5.492.207-.132.005-.276,0-.426,0A5.154,5.154,0,0,1,14.307,19.495Z" transform="translate(0 3.001)" fill="#5d5d5d" stroke="rgba(0,0,0,0)" stroke-width="1"/>
  </g>
</svg>
