<svg xmlns="http://www.w3.org/2000/svg" width="38.017" height="38.089" viewBox="0 0 38.017 38.089">
  <path id="icon_arrow" d="M9.553,31.488c2.577,2.543,5.28,5.876,9.159,5.881,3.729-.006,6.26-3.055,8.761-5.493a83.925,83.925,0,0,0,8.687-9.824c1.405-1.881,2.257-4.618-.724-5.55-2.065-.646-4.614-.474-6.942-.436.054-2.227.068-4.454.112-6.682.04-2.053.669-4.923-.211-6.893C27.017-.589,21.44.059,18.712.059c-2.656,0-8.073-.628-9.588,2.212C8.147,4.1,8.766,6.927,8.809,8.85c.053,2.409.064,4.82.123,7.23a27.379,27.379,0,0,0-6.7.39c-3.162.8-2.469,3.558-.971,5.583A81.407,81.407,0,0,0,9.553,31.488Zm1.283-11.736A1.881,1.881,0,0,0,12.688,17.9c-.151-4.06-.144-8.125-.273-12.186.022.685.046-1.777-.218-1.436.327-.424,1.884-.323,2.314-.35,1.4-.087,2.8-.163,4.2-.164s2.8.076,4.2.164c2.159.137,2.158-.182,2.1,1.786-.126,4.062-.121,8.126-.272,12.186a1.885,1.885,0,0,0,1.852,1.852c1.939.1,3.882.145,5.823.219.13,0,.286,0,.451,0a5.484,5.484,0,0,0-.277.7q-.675.859-1.372,1.7-2.459,2.971-5.175,5.715c-1.772,1.793-4.6,5.577-7.325,5.581s-5.555-3.788-7.325-5.581q-2.71-2.744-5.175-5.715-.7-.841-1.372-1.7a5.309,5.309,0,0,0-.277-.7c.158,0,.311.005.451,0C6.954,19.9,8.9,19.856,10.835,19.752Z" transform="translate(0.653 38.089) rotate(-91)" fill="#5d5d5d"/>
</svg>
