<svg xmlns="http://www.w3.org/2000/svg" width="62.5" height="62" viewBox="0 0 62.5 62">
  <g id="icon_download_dark" transform="translate(0.5)">
    <rect id="Square" width="62" height="62" fill="none"/>
    <path id="Icon_-_Download" data-name="Icon - Download" d="M3.783,43.861C1.739,43.753.578,42.845.3,40.8-.174,37.4.09,33.725,0,30.29c-.059-2.276,3.47-2.267,3.528,0,.079,3.015.171,6.031.235,9.047.027,1.278-.346,1.1,1.191.986,1.033-.076,2.087-.061,3.135-.047.522.008,1.043.015,1.559.011l16.429-.126,16.429-.126L47.2,40l2.02-.015a1.007,1.007,0,0,1,.065-.441,15.324,15.324,0,0,0-.1-3.748q-.056-2.143-.114-4.284c-.061-2.274,3.468-2.267,3.528,0q.072,2.679.144,5.354a16.22,16.22,0,0,1-.019,4.437c-.658,2.355-2.948,2.208-4.937,2.222l-21.709.167c-5.361.041-10.8.318-16.2.318C7.84,44.008,5.8,43.968,3.783,43.861ZM18.938,30a77.568,77.568,0,0,1-7.9-8.989c-1.428-1.928-2.087-4.554.925-5.319a26.149,26.149,0,0,1,6.379-.371c-.056-2.294-.067-4.591-.117-6.886-.04-1.833-.63-4.526.3-6.267C19.973-.541,25.134.056,27.665.056c2.6,0,7.911-.617,9.223,2.319.839,1.876.239,4.609.2,6.566-.041,2.122-.054,4.243-.105,6.364,2.218-.037,4.645-.2,6.613.416,2.84.888,2.029,3.494.69,5.287a79.877,79.877,0,0,1-8.275,9.358c-2.383,2.324-4.794,5.228-8.346,5.234C23.969,35.594,21.394,32.42,18.938,30ZM14.449,19.689q.643.821,1.306,1.62,2.343,2.829,4.93,5.444c1.686,1.707,4.388,5.313,6.979,5.317s5.29-3.61,6.978-5.317q2.582-2.612,4.93-5.444.663-.8,1.306-1.62a5.584,5.584,0,0,1,.264-.665c-.157,0-.305.006-.43,0-1.849-.07-3.7-.108-5.546-.209A1.8,1.8,0,0,1,33.4,17.052c.144-3.868.139-7.74.259-11.608.059-1.875.061-1.572-2-1.7-1.331-.084-2.667-.157-4-.156s-2.67.072-4,.156c-.408.026-1.881-.069-2.2.329.115-.138.171.3.2.731.029.493.018.987.007.643.122,3.868.116,7.74.259,11.608a1.791,1.791,0,0,1-1.765,1.764c-1.848.1-3.7.138-5.546.209-.133.006-.279,0-.43,0A5.21,5.21,0,0,1,14.449,19.689Z" transform="translate(0 3.001)" fill="#010101" stroke="rgba(0,0,0,0)" stroke-width="1"/>
  </g>
</svg>
