<svg xmlns="http://www.w3.org/2000/svg" width="305.624" height="669" viewBox="0 0 305.624 669">
  <g id="process_standing" transform="translate(-830.326 -889)">
    <path id="Path_1042" data-name="Path 1042" d="M974.928,5756.64c-3.118,0-4.943-.092-5.087-.1a5,5,0,0,1,.584-9.983c4.563.267,111.817,5.5,117.752-77.668,1.592-22.309-.937-36.059-7.518-40.868-7.9-5.772-23.335.392-39.677,6.917-13.79,5.507-28.05,11.2-41.151,11.2-33.969,0-107.726-10.49-143.736-50.188-15.676-17.283-22.441-38.169-20.1-62.08,10.278-105.195,51.063-135.059,83.468-141.588,11.492-2.314,23.108.8,34.527,9.251A81.027,81.027,0,0,1,965,5411.505a243.932,243.932,0,0,0,31.979-18.431c13.254-9.183,24.1-12,33.153-8.6,14.886,5.583,20.107,26.261,25.156,46.259,4.384,17.364,8.917,35.319,18.568,36.733,19.546,2.865,43.657-6.612,52.651-20.689,5.5-8.612,5.007-18-1.47-27.9-6.583-10.065-20-24.033-35.534-40.206-14.671-15.274-30.745-32.008-44.225-48.811-52.167,2.193-113.189-6.912-148.918-19.4-24.3-8.494-28.984-20.8-28.635-29.628.46-11.621,10.009-23.479,22.908-33.447-6.773-24.1-9.592-58.414-8.57-103.565a5,5,0,0,1,10,.227c-.949,41.906,1.488,74.4,7.262,97.218,11.912-7.67,25.343-13.658,36.817-16.676,18.5-4.865,25.793-.365,28.658,4.267a43.238,43.238,0,0,1,.807,43.191c-6.714,12.047-18.668,18.957-32.8,18.957a34.423,34.423,0,0,1-25.4-10.855q-7.988-8.172-13.454-22.6c-9.454,7.853-15.943,16.356-16.233,23.681-.314,7.935,7.068,14.595,21.942,19.794,35.11,12.273,90.281,19.967,137.968,18.89-16.7-22.775-27.155-45.164-21.359-63.675,7.169-22.894,24.881-50.569,51.205-53.219,16.111-1.623,40.659,6.135,66.126,52.3,12.926,23.43,6.891,38.7-.449,47.392-13.247,15.681-41.805,23.7-75.518,26.406,12.454,14.911,26.617,29.655,39.082,42.632,15.882,16.534,29.6,30.813,36.691,41.66,8.576,13.113,9.119,26.878,1.528,38.759-11.068,17.324-39.118,28.627-62.526,25.2-16.262-2.382-21.627-23.63-26.815-44.18-4.419-17.5-8.988-35.6-18.971-39.343-5.675-2.128-13.732.381-23.946,7.458a247.764,247.764,0,0,1-31.03,18.084c18.118,23.537,30.716,57.479,33.159,82.486,2.177,22.286-12.507,42.341-34.913,47.687-21.355,5.1-49.891-4.152-65.935-45.388-21.291-54.721,7.634-67.984,44.254-84.776q3.562-1.633,7.268-3.349a67.272,67.272,0,0,0-7.447-6.467c-9.049-6.7-18-9.219-26.6-7.485-41.722,8.406-67.827,54.313-75.491,132.758-2.05,20.984,3.857,39.283,17.559,54.388,34.9,38.48,110.244,46.907,136.329,46.907,11.178,0,24.53-5.332,37.443-10.489,18.985-7.581,36.916-14.743,49.285-5.7,9.815,7.172,13.5,22.95,11.593,49.654C1092.3,5751.564,998.063,5756.64,974.928,5756.64Zm-12.506-332.806c-3.427,1.611-6.78,3.148-10.04,4.644-36.738,16.846-56.976,26.125-39.1,72.06,13.714,35.246,37.039,43.406,54.295,39.287,15-3.579,29.191-17.434,27.281-36.988C992.492,5478.648,979.728,5445.5,962.421,5423.834Zm109-211.02a29.4,29.4,0,0,0-2.945.148c-20.1,2.023-35.91,24.691-42.664,46.258-5.038,16.089,6.755,37.94,24.014,60.206,34.684-1.977,63.8-9.108,75.686-23.177,7.837-9.276,7.618-21.087-.668-36.108C1107.717,5229.091,1089.311,5212.814,1071.424,5212.814Zm-169.131,38.479q4.961,14.374,12.265,21.858A24.444,24.444,0,0,0,932.81,5281c10.549,0,19.095-4.91,24.063-13.825,5.634-10.11,5.4-23.4-.576-33.062-.96-1.552-6.442-2.794-17.61.144C926.692,5237.41,913.4,5243.747,902.294,5251.293Z" transform="translate(-5.215 -4209)" fill="#fff"/>
    <text id="START" transform="translate(852 914)" fill="#fff" font-size="23" font-family="SegoeUI, Segoe UI"><tspan x="0" y="0">START</tspan></text>
    <text id="SLUT" transform="translate(900 1552)" fill="#fff" font-size="23" font-family="SegoeUI, Segoe UI"><tspan x="0" y="0">SLUT</tspan></text>
  </g>
</svg>
