<svg xmlns="http://www.w3.org/2000/svg" width="346" height="95.95" viewBox="0 0 346 95.95">
  <g id="process_phone" transform="translate(-40 -1520.282)">
    <path id="Path_1043" data-name="Path 1043" d="M883.074,5447.5c-1.169,0-1.865-.062-1.931-.068a1.5,1.5,0,0,1,.137-2.994c.047,0,.093,0,.141.006a34.24,34.24,0,0,0,8.253-.561,33.868,33.868,0,0,0,16.167-7.552c7.74-6.758,11.986-17.312,12.621-31.371.323-7.16.106-12.7-.647-16.452-.611-3.05-1.563-4.97-2.829-5.706-2.429-1.411-6.895,1.408-11.213,4.134-4.378,2.764-8.9,5.622-13.155,5.622a57.234,57.234,0,0,1-17.956-3.367,58.738,58.738,0,0,1-11.01-5.12,48.421,48.421,0,0,1-10.323-8.263,43.59,43.59,0,0,1-9.428-15.579,56.885,56.885,0,0,1-2.724-22.339c1.314-21.258,4.321-37.971,8.94-49.676,4.312-10.927,10.061-17.6,17.089-19.841a7.961,7.961,0,0,1,4.015-.228,10.15,10.15,0,0,1,3.722,1.637,24.9,24.9,0,0,1,6.8,7.948,77.611,77.611,0,0,0,9.765-8.939c3.707-4.061,6.868-5.629,9.663-4.792,2.6.777,4.505,3.506,6.006,8.589a121.746,121.746,0,0,1,2.831,14.261,117.541,117.541,0,0,0,2.579,13.152c1.28,4.38,2.562,5.534,3.412,5.731,4.336,1.006,9.716-1.231,13.387-5.562,4.677-5.518,5.6-12.944,2.522-20.375-2.106-5.09-6.343-12.064-11.249-20.14-4.633-7.625-9.717-15.993-13.952-24.344a84.3,84.3,0,0,1-11.06-.082c-13.029-.91-26.734-4.576-35.768-9.568a16.765,16.765,0,0,1-7.559-7.633,14.584,14.584,0,0,1-.772-9.21,26.809,26.809,0,0,1,3.911-8.881,40.848,40.848,0,0,1,3.034-4.052q-.392-2.093-.731-4.416c-1.68-11.5-2.387-27.5-2.1-47.568a1.5,1.5,0,0,1,1.5-1.479h.022a1.5,1.5,0,0,1,1.478,1.521c-.285,19.906.411,35.75,2.068,47.091q.155,1.059.321,2.07.461-.461.935-.91c5.028-4.759,10.543-7.909,14.394-8.219a5.868,5.868,0,0,1,3.127.511,4.428,4.428,0,0,1,2.153,2.4,29.556,29.556,0,0,1,1.707,12.767,24.247,24.247,0,0,1-3.638,11.607c-2.13,3.121-4.961,4.77-8.187,4.77a8.4,8.4,0,0,1-6.105-2.724c-2.575-2.613-4.606-7.1-6.146-13.628a26.107,26.107,0,0,0-4.812,9.764c-1.252,5.811,1.052,10.381,6.849,13.585,8.675,4.794,21.9,8.32,34.525,9.2a83.432,83.432,0,0,0,9.4.151c-5.6-11.624-9.262-23.042-7.449-32.194a58.622,58.622,0,0,1,6.123-17.421,22.864,22.864,0,0,1,4.676-5.913,10.175,10.175,0,0,1,5.923-2.662q.3-.021.591-.021c3.319,0,6.577,1.966,9.695,5.852,3.434,4.281,6.762,11,9.89,19.961,2.166,6.208,2.792,11.766,1.859,16.517a19.159,19.159,0,0,1-6.629,11.193c-3.712,3.131-8.813,5.352-15.162,6.6q-2.332.458-4.839.735c4.087,7.926,8.91,15.865,13.284,23.064,4.971,8.182,9.263,15.247,11.457,20.551a24.019,24.019,0,0,1,1.732,13.224,21.166,21.166,0,0,1-4.738,10.237,20.151,20.151,0,0,1-7.688,5.657,14.368,14.368,0,0,1-8.664.889c-3.2-.742-4.739-4.813-5.615-7.812a119.4,119.4,0,0,1-2.662-13.521,119.846,119.846,0,0,0-2.746-13.884c-1.154-3.909-2.5-6.118-3.989-6.564-1.537-.459-3.815.9-6.588,3.94a80.945,80.945,0,0,1-10.509,9.574,82.889,82.889,0,0,1,4.777,11.495,123.715,123.715,0,0,1,6.121,30.1,28.466,28.466,0,0,1-3.188,15.448,17.5,17.5,0,0,1-4.184,5.122,11.318,11.318,0,0,1-5.444,2.516,9.93,9.93,0,0,1-5.462-.723,14.719,14.719,0,0,1-5.177-3.9c-3.44-3.885-6.19-9.944-8.175-18.007a65.222,65.222,0,0,1-2.228-15.828,25.756,25.756,0,0,1,2.208-10.872c2.756-5.916,7.828-9.593,13.7-13.85,1.031-.747,2.091-1.516,3.175-2.323-2.017-3.458-4.065-5.914-6.093-7.3a5.68,5.68,0,0,0-5.132-1.026c-6.127,1.951-11.244,8.036-15.209,18.083-4.5,11.412-7.442,27.817-8.736,48.759-.908,14.7,2.908,26.706,11.343,35.679,11.753,12.5,29.409,15.8,37.1,15.8,3.383,0,7.536-2.623,11.553-5.159a49.583,49.583,0,0,1,7.251-4.064c2.883-1.175,5.2-1.217,7.07-.127,2.071,1.2,3.465,3.725,4.264,7.711.811,4.051,1.041,9.669.7,17.176A57.715,57.715,0,0,1,917,5425.907a36.054,36.054,0,0,1-9.22,12.714,34.6,34.6,0,0,1-9.117,5.693,39.435,39.435,0,0,1-8.571,2.544A40.391,40.391,0,0,1,883.074,5447.5Zm-4.287-165.273c-.975.721-1.929,1.413-2.86,2.088-5.762,4.178-10.314,7.477-12.741,12.688-2.656,5.7-2.589,13.323.214,24.716,1.841,7.48,4.437,13.267,7.508,16.736,2.481,2.8,5.226,4.061,7.939,3.65,2.806-.428,5.525-2.664,7.46-6.133a25.444,25.444,0,0,0,2.814-13.8,120.547,120.547,0,0,0-5.969-29.323A81.175,81.175,0,0,0,878.787,5282.228Zm34.331-105.045c-.124,0-.247,0-.37.013-3.541.249-6.421,3.99-8.213,7.085a55.588,55.588,0,0,0-5.776,16.5c-1.338,6.753.55,15.658,5.771,27.223q.938,2.078,1.971,4.174c8.4-.766,15.127-3.069,19.508-6.766,6.354-5.361,7.657-13.58,3.872-24.428-3.015-8.641-6.177-15.058-9.4-19.072C917.965,5178.771,915.489,5177.183,913.118,5177.183Zm-53.393,19.572c1.459,7.137,3.421,11.989,5.855,14.458a5.436,5.436,0,0,0,3.969,1.83c2.22,0,4.141-1.165,5.709-3.461,3.526-5.166,4.251-14.852,1.615-21.59-.136-.348-.455-1.162-2.246-1.019a14.772,14.772,0,0,0-5.678,2.152,38.345,38.345,0,0,0-6.9,5.255Q860.826,5195.542,859.725,5196.755Z" transform="translate(5498.789 681.24) rotate(90)" fill="#5d5d5d"/>
    <text id="START" transform="translate(40 1554)" fill="#5d5d5d" font-size="11" font-family="SegoeUI, Segoe UI"><tspan x="0" y="0">START</tspan></text>
    <text id="SLUT" transform="translate(361 1539)" fill="#5d5d5d" font-size="11" font-family="SegoeUI, Segoe UI"><tspan x="0" y="0">SLUT</tspan></text>
  </g>
</svg>
