<svg xmlns="http://www.w3.org/2000/svg" width="825.192" height="329.705" viewBox="0 0 825.192 329.705">
  <g id="process_horizontal" transform="translate(-873.797 1130.814) rotate(-89)">
    <path id="Path_1042" data-name="Path 1042" d="M981.371,5874.051c-3.83,0-6.212-.146-6.671-.177a5,5,0,0,1,.671-9.978c.565.038,56.93,3.379,92.765-28.134,17.923-15.762,27.881-37.76,29.6-65.384,1.752-28.222-1.276-45.217-9-50.516-8.268-5.671-23.683,1.406-40,8.9-14.345,6.585-29.178,13.4-42.87,13.4-32.755,0-105.024-11.238-144.094-53.769-19.728-21.476-28.4-48.074-25.763-79.056,10.613-124.875,52.81-160.344,86.34-168.11,10.693-2.476,21.515.2,32.165,7.95a82.234,82.234,0,0,1,15.218,14.905,246.831,246.831,0,0,0,33.019-21.9c13.225-10.535,24.175-14.052,33.473-10.752,16.222,5.756,21.729,30.83,27.054,55.077,4.4,20.019,9.38,42.708,19.5,44.411,18.77,3.163,41.843-6.336,52.528-21.619,5.583-7.985,10.2-21.08.507-38.121-6.875-12.085-20.821-28.776-36.969-48.1-15.327-18.344-32.138-38.465-46.166-58.606-54.669,2.486-118.483-8.436-154.343-22.846-25.94-10.424-30.237-25.318-29.272-35.978,1.18-13.053,10.917-26.444,23.857-37.792-7.162-28.641-10.15-69.752-9.082-124.021a5,5,0,1,1,10,.2c-.993,50.443,1.584,89.513,7.684,116.914,14.508-10.708,31.221-18.7,44.262-21.368,15.081-3.084,21.224,1.8,23.722,6.444,8.627,16.035,8.157,38.1-1.143,53.669-7.223,12.088-18.6,18.746-32.049,18.746-9.261,0-17.436-3.548-24.3-10.547-6.461-6.59-11.8-16.344-16.044-29.357-9.385,8.938-16.116,18.807-16.948,28.016-.958,10.589,6.795,19.269,23.042,25.8,36.295,14.585,94.234,23.908,144.12,22.474-17.79-27.45-29.12-54.417-23.123-76.429,7.5-27.525,26.1-60.563,53.838-63.087,16.568-1.506,41.773,8.066,67.769,62.238,11.585,24.14,10.273,44.052-3.9,59.181-14.985,16-43.367,24.207-76.306,26.988,13.288,18.524,28.619,36.873,42.055,52.954,16.456,19.7,30.669,36.706,37.987,49.57,9.58,16.839,9.224,34.168-1,48.8-11.216,16.041-32.888,26.5-53.211,26.5a55.269,55.269,0,0,1-9.173-.749c-16.776-2.825-22.036-26.773-27.6-52.127-4.519-20.576-9.641-43.9-20.631-47.8-5.7-2.023-13.738,1.057-23.9,9.15a253.661,253.661,0,0,1-33.244,22.168c18.849,27.525,32.481,68.015,35.111,98.971,2.3,27.086-14.269,51.328-38.544,56.389-21.422,4.468-49.966-7.469-65.837-54.362-21.69-64.084,6.56-78.976,45.659-99.586,2.858-1.506,5.786-3.05,8.771-4.653a71.727,71.727,0,0,0-12.267-11.674c-8.2-5.969-16.282-8.086-24.023-6.292-43.445,10.063-70.636,65.118-78.633,159.215-2.386,28.077,5.407,52.114,23.163,71.444,38.082,41.456,111.611,50.534,136.73,50.534,11.506,0,25.33-6.346,38.7-12.483,18.97-8.709,36.888-16.935,49.832-8.057,11.132,7.636,15.367,26.5,13.326,59.382-1.887,30.4-13,54.732-33.021,72.317C1042.917,5871.219,998.2,5874.051,981.371,5874.051Zm-14.31-397.087c-3.508,1.895-6.941,3.7-10.28,5.464-38.564,20.329-59.806,31.527-40.85,87.534,11.7,34.571,32.008,52.435,54.324,47.779,19.33-4.03,32.495-23.7,30.621-45.752C998.328,5542,985.136,5502.747,967.062,5476.963Zm113.107-251.812q-1.191,0-2.376.108c-21.185,1.928-37.914,29.393-45.1,55.756-5.385,19.768,7.039,46.325,25.182,73.252,33.4-2.195,61.843-9.721,75.579-24.385,11.224-11.982,11.937-27.688,2.181-48.018C1117.795,5244.679,1098.668,5225.151,1080.169,5225.151Zm-175.986,46.291q5.864,20.146,14.96,29.443c4.98,5.079,10.592,7.548,17.158,7.548,12.541,0,19.682-7.545,23.464-13.875,7.587-12.7,7.966-30.709.921-43.8-1.2-2.237-6.151-2.768-12.913-1.385C935.081,5251.966,918.1,5260.525,904.183,5271.442Z" transform="translate(-5.215 -4207.263)" fill="#fff"/>
    <text id="START" transform="matrix(0.017, 1, -1, 0.017, 872.297, 858.704)" fill="#fff" font-size="24" font-family="SegoeUI, Segoe UI"><tspan x="0" y="0">START</tspan></text>
    <text id="SLUT" transform="matrix(0.017, 1, -1, 0.017, 915.227, 1636.265)" fill="#fff" font-size="21" font-family="SegoeUI, Segoe UI"><tspan x="0" y="0">SLUT</tspan></text>
  </g>
</svg>
