<svg xmlns="http://www.w3.org/2000/svg" xmlns:xlink="http://www.w3.org/1999/xlink" width="2244" height="3413" viewBox="0 0 2244 3413">
  <defs>
    <clipPath id="clip-path">
      <rect id="Rectangle_37" data-name="Rectangle 37" width="2244" height="3413" transform="translate(-3089.213 3958)" fill="none" stroke="#707070" stroke-width="1"/>
    </clipPath>
    <filter id="Path_1052" x="1596.028" y="-15" width="270.219" height="3475.067" filterUnits="userSpaceOnUse">
      <feOffset dx="-15" input="SourceAlpha"/>
      <feGaussianBlur stdDeviation="5" result="blur"/>
      <feFlood flood-opacity="0.161"/>
      <feComposite operator="in" in2="blur"/>
      <feComposite in="SourceGraphic"/>
    </filter>
    <filter id="Path_1053" x="1801.444" y="-15" width="270.219" height="3476.86" filterUnits="userSpaceOnUse">
      <feOffset dx="15" input="SourceAlpha"/>
      <feGaussianBlur stdDeviation="5" result="blur-2"/>
      <feFlood flood-opacity="0.161"/>
      <feComposite operator="in" in2="blur-2"/>
      <feComposite in="SourceGraphic"/>
    </filter>
  </defs>
  <g id="sal" transform="translate(3089.213 -3958)" clip-path="url(#clip-path)">
    <g id="sal-2" data-name="sal" transform="translate(-3089.213 3958)">
      <rect id="Rectangle_32" data-name="Rectangle 32" width="2244" height="3447" transform="translate(0 0)" fill="#bbb8b8"/>
      <g id="full_pillar" transform="translate(1626.028)">
        <g transform="matrix(1, 0, 0, 1, -1626.03, 0)" filter="url(#Path_1052)">
          <path id="Path_1052-2" data-name="Path 1052" d="M1483.28,1195c52.6.227,239.992,0,239.992,0v339.231s.51,3095.415,0,3105.608c-44.805.512-69.529,0-95.478,0-10.011,0-.279-3105.608,0-3105.608-1.532-33.926-18.384-97.733-22.469-107.7C1601.24,1413.9,1567.027,1296.255,1483.28,1195Z" transform="translate(142.75 -1195)" fill="#bbb8b8"/>
        </g>
        <g transform="matrix(1, 0, 0, 1, -1626.03, 0)" filter="url(#Path_1053)">
          <path id="Path_1053-2" data-name="Path 1053" d="M1723.264,1195c-52.6.227-239.992,0-239.992,0v339.231s-.51,3097.209,0,3107.4c44.805.512,69.529,0,95.478,0,10.011,0,.279-3107.4,0-3107.4,1.532-33.926,18.384-97.733,22.469-107.7C1605.3,1413.9,1639.517,1296.255,1723.264,1195Z" transform="translate(318.4 -1195)" fill="#bbb8b8"/>
        </g>
      </g>
    </g>
  </g>
</svg>
